<svg width="28" height="21" viewBox="0 0 28 21" fill="none" xmlns="http://www.w3.org/2000/svg">
<rect y="0.5" width="28" height="20" rx="2" fill="#F0F0F1"/>
<mask id="mask0_1_181" style="mask-type:luminance" maskUnits="userSpaceOnUse" x="0" y="0" width="28" height="21">
<rect y="0.5" width="28" height="20" rx="2" fill="white"/>
</mask>
<g mask="url(#mask0_1_181)">
<path fill-rule="evenodd" clip-rule="evenodd" d="M28 0.5H0V1.83333H28V0.5ZM28 3.16667H0V4.5H28V3.16667ZM0 5.83333H28V7.16667H0V5.83333ZM28 8.5H0V9.83333H28V8.5ZM0 11.1667H28V12.5H0V11.1667ZM28 13.8333H0V15.1667H28V13.8333ZM0 16.5H28V17.8333H0V16.5ZM28 19.1667H0V20.5H28V19.1667Z" fill="#D02F44"/>
<rect y="0.5" width="12" height="9.33333" fill="#46467F"/>
<g filter="url(#filter0_d_1_181)">
<path fill-rule="evenodd" clip-rule="evenodd" d="M2.66671 2.50004C2.66671 2.86823 2.36823 3.16671 2.00004 3.16671C1.63185 3.16671 1.33337 2.86823 1.33337 2.50004C1.33337 2.13185 1.63185 1.83337 2.00004 1.83337C2.36823 1.83337 2.66671 2.13185 2.66671 2.50004ZM5.33337 2.50004C5.33337 2.86823 5.0349 3.16671 4.66671 3.16671C4.29852 3.16671 4.00004 2.86823 4.00004 2.50004C4.00004 2.13185 4.29852 1.83337 4.66671 1.83337C5.0349 1.83337 5.33337 2.13185 5.33337 2.50004ZM7.33337 3.16671C7.70156 3.16671 8.00004 2.86823 8.00004 2.50004C8.00004 2.13185 7.70156 1.83337 7.33337 1.83337C6.96518 1.83337 6.66671 2.13185 6.66671 2.50004C6.66671 2.86823 6.96518 3.16671 7.33337 3.16671ZM10.6667 2.50004C10.6667 2.86823 10.3682 3.16671 10 3.16671C9.63185 3.16671 9.33337 2.86823 9.33337 2.50004C9.33337 2.13185 9.63185 1.83337 10 1.83337C10.3682 1.83337 10.6667 2.13185 10.6667 2.50004ZM3.33337 4.50004C3.70156 4.50004 4.00004 4.20156 4.00004 3.83337C4.00004 3.46518 3.70156 3.16671 3.33337 3.16671C2.96518 3.16671 2.66671 3.46518 2.66671 3.83337C2.66671 4.20156 2.96518 4.50004 3.33337 4.50004ZM6.66671 3.83337C6.66671 4.20156 6.36823 4.50004 6.00004 4.50004C5.63185 4.50004 5.33337 4.20156 5.33337 3.83337C5.33337 3.46518 5.63185 3.16671 6.00004 3.16671C6.36823 3.16671 6.66671 3.46518 6.66671 3.83337ZM8.66671 4.50004C9.0349 4.50004 9.33337 4.20156 9.33337 3.83337C9.33337 3.46518 9.0349 3.16671 8.66671 3.16671C8.29852 3.16671 8.00004 3.46518 8.00004 3.83337C8.00004 4.20156 8.29852 4.50004 8.66671 4.50004ZM10.6667 5.16671C10.6667 5.5349 10.3682 5.83337 10 5.83337C9.63185 5.83337 9.33337 5.5349 9.33337 5.16671C9.33337 4.79852 9.63185 4.50004 10 4.50004C10.3682 4.50004 10.6667 4.79852 10.6667 5.16671ZM7.33337 5.83337C7.70156 5.83337 8.00004 5.5349 8.00004 5.16671C8.00004 4.79852 7.70156 4.50004 7.33337 4.50004C6.96518 4.50004 6.66671 4.79852 6.66671 5.16671C6.66671 5.5349 6.96518 5.83337 7.33337 5.83337ZM5.33337 5.16671C5.33337 5.5349 5.0349 5.83337 4.66671 5.83337C4.29852 5.83337 4.00004 5.5349 4.00004 5.16671C4.00004 4.79852 4.29852 4.50004 4.66671 4.50004C5.0349 4.50004 5.33337 4.79852 5.33337 5.16671ZM2.00004 5.83337C2.36823 5.83337 2.66671 5.5349 2.66671 5.16671C2.66671 4.79852 2.36823 4.50004 2.00004 4.50004C1.63185 4.50004 1.33337 4.79852 1.33337 5.16671C1.33337 5.5349 1.63185 5.83337 2.00004 5.83337ZM4.00004 6.50004C4.00004 6.86823 3.70156 7.16671 3.33337 7.16671C2.96518 7.16671 2.66671 6.86823 2.66671 6.50004C2.66671 6.13185 2.96518 5.83337 3.33337 5.83337C3.70156 5.83337 4.00004 6.13185 4.00004 6.50004ZM6.00004 7.16671C6.36823 7.16671 6.66671 6.86823 6.66671 6.50004C6.66671 6.13185 6.36823 5.83337 6.00004 5.83337C5.63185 5.83337 5.33337 6.13185 5.33337 6.50004C5.33337 6.86823 5.63185 7.16671 6.00004 7.16671ZM9.33337 6.50004C9.33337 6.86823 9.0349 7.16671 8.66671 7.16671C8.29852 7.16671 8.00004 6.86823 8.00004 6.50004C8.00004 6.13185 8.29852 5.83337 8.66671 5.83337C9.0349 5.83337 9.33337 6.13185 9.33337 6.50004ZM10 8.50004C10.3682 8.50004 10.6667 8.20156 10.6667 7.83337C10.6667 7.46518 10.3682 7.16671 10 7.16671C9.63185 7.16671 9.33337 7.46518 9.33337 7.83337C9.33337 8.20156 9.63185 8.50004 10 8.50004ZM8.00004 7.83337C8.00004 8.20156 7.70156 8.50004 7.33337 8.50004C6.96518 8.50004 6.66671 8.20156 6.66671 7.83337C6.66671 7.46518 6.96518 7.16671 7.33337 7.16671C7.70156 7.16671 8.00004 7.46518 8.00004 7.83337ZM4.66671 8.50004C5.0349 8.50004 5.33337 8.20156 5.33337 7.83337C5.33337 7.46518 5.0349 7.16671 4.66671 7.16671C4.29852 7.16671 4.00004 7.46518 4.00004 7.83337C4.00004 8.20156 4.29852 8.50004 4.66671 8.50004ZM2.66671 7.83337C2.66671 8.20156 2.36823 8.50004 2.00004 8.50004C1.63185 8.50004 1.33337 8.20156 1.33337 7.83337C1.33337 7.46518 1.63185 7.16671 2.00004 7.16671C2.36823 7.16671 2.66671 7.46518 2.66671 7.83337Z" fill="url(#paint0_linear_1_181)"/>
</g>
</g>
<defs>
<filter id="filter0_d_1_181" x="1.33337" y="1.83337" width="9.33337" height="7.66663" filterUnits="userSpaceOnUse" color-interpolation-filters="sRGB">
<feFlood flood-opacity="0" result="BackgroundImageFix"/>
<feColorMatrix in="SourceAlpha" type="matrix" values="0 0 0 0 0 0 0 0 0 0 0 0 0 0 0 0 0 0 127 0" result="hardAlpha"/>
<feOffset dy="1"/>
<feColorMatrix type="matrix" values="0 0 0 0 0 0 0 0 0 0 0 0 0 0 0 0 0 0 0.06 0"/>
<feBlend mode="normal" in2="BackgroundImageFix" result="effect1_dropShadow_1_181"/>
<feBlend mode="normal" in="SourceGraphic" in2="effect1_dropShadow_1_181" result="shape"/>
</filter>
<linearGradient id="paint0_linear_1_181" x1="1.33337" y1="1.83337" x2="1.33337" y2="8.50004" gradientUnits="userSpaceOnUse">
<stop stop-color="white"/>
<stop offset="1" stop-color="#F0F0F0"/>
</linearGradient>
</defs>
</svg>
